<?xml version="1.0" encoding="UTF-8"?>
<svg version="1.1" xmlns="http://www.w3.org/2000/svg" width="500" height="500">
<path d="M0 0 C165 0 330 0 500 0 C500 165 500 330 500 500 C335 500 170 500 0 500 C0 335 0 170 0 0 Z " fill="#2A2A2A" transform="translate(0,0)"/>
<path d="M0 0 C0.80308594 -0.00773437 1.60617188 -0.01546875 2.43359375 -0.0234375 C16.54737867 0.02231221 28.27259742 5.44408321 38.40625 15.05859375 C51.68396036 29.06424875 55.41584866 50.87839688 60.23266602 68.93383789 C61.99801362 75.52171212 63.92463276 82.04628764 65.9375 88.5625 C70.70736317 104.04091611 75.01586503 119.6417057 79.17626953 135.29394531 C81.91106301 145.57315254 84.82282542 155.74747735 88.09765625 165.8671875 C89.89253102 171.42304557 91.51174911 177.0270198 93.12890625 182.63671875 C96.88006376 195.41080885 101.03489748 208.06051824 105.25 220.6875 C105.50878937 221.46326385 105.76757874 222.23902771 106.03421021 223.03829956 C109.41538702 233.16057372 112.84617292 243.26252658 116.4375 253.3125 C116.94845215 254.75290649 116.94845215 254.75290649 117.46972656 256.22241211 C119.82204353 262.72360217 122.55784901 268.99481326 125.5 275.25 C125.77336182 274.61876221 126.04672363 273.98752441 126.32836914 273.3371582 C127.46502713 270.7127039 128.60192712 268.08835453 129.73886108 265.46401978 C130.58373365 263.51347828 131.42822219 261.56277078 132.27270508 259.61206055 C135.65587122 251.79964106 139.04716104 243.99083 142.44900513 236.18652344 C158.64890499 199.02040925 174.55923223 161.76680246 189.625 124.125 C190.25266266 122.55679504 190.25266266 122.55679504 190.89300537 120.95690918 C195.35916551 109.78382163 199.77120422 98.59245286 204.07421875 87.35546875 C204.79863934 85.47085588 205.5230854 83.5862528 206.24755859 81.70166016 C207.583877 78.22350197 208.90374464 74.73974462 210.21337891 71.25146484 C216.9204202 53.60427077 225.37118856 40.62729128 243.12890625 32.625 C257.01873769 26.95962264 273.49617052 27.90660838 287.5 32.875 C298.55039083 37.64596239 308.39350139 45.96087626 313.4375 57.0625 C315.19928375 62.34785124 315.70820772 67.17310742 315.8125 72.75 C315.84988281 74.0390625 315.88726562 75.328125 315.92578125 76.65625 C315.34771148 88.6088508 309.19247081 100.81778925 305 111.9375 C304.68208496 112.78348755 304.36416992 113.6294751 304.03662109 114.50109863 C290.65607126 150.05818381 276.33487515 185.27607968 261.5 220.25 C261.11305969 221.16267639 260.72611938 222.07535278 260.32745361 223.01568604 C248.35836355 251.23212643 236.18497111 279.34755646 223.5 307.25 C223.15364502 308.01211792 222.80729004 308.77423584 222.45043945 309.55944824 C208.76768947 339.64855122 194.71626293 369.56190839 180.3125 399.3125 C179.96010254 400.04221008 179.60770508 400.77192017 179.24462891 401.52374268 C163.07652093 434.97365595 163.07652093 434.97365595 143.95703125 442.48828125 C129.22104023 447.05667274 114.29068338 444.3393457 100.8125 437.5625 C87.74687701 429.8590691 80.98158058 419.03990259 73.5 406.25 C73.0992627 405.57018066 72.69852539 404.89036133 72.28564453 404.18994141 C65.22323124 392.13941148 58.82573251 379.69825287 52.5 367.25 C51.77490234 365.8261499 51.77490234 365.8261499 51.03515625 364.37353516 C28.76819681 320.28465374 13.40776657 272.95137738 -1.61062622 226.02737427 C-2.53317424 223.14640208 -3.4588923 220.26645815 -4.38452148 217.38647461 C-7.34600001 208.1515099 -10.27465244 198.92470264 -12.8125 189.5625 C-13.39097047 187.46588166 -13.97046122 185.36954465 -14.55078125 183.2734375 C-14.85838379 182.1606543 -15.16598633 181.04787109 -15.48291016 179.90136719 C-17.45525385 172.82062493 -19.47863599 165.75437623 -21.5 158.6875 C-21.71546478 157.93401276 -21.93092957 157.18052551 -22.15292358 156.40420532 C-25.89030727 143.3395799 -29.66595732 130.28661948 -33.5 117.25 C-33.79551758 116.24259766 -34.09103516 115.23519531 -34.39550781 114.19726562 C-35.34460193 110.96413193 -36.29718325 107.73203839 -37.25 104.5 C-37.57049316 103.4059082 -37.89098633 102.31181641 -38.22119141 101.18457031 C-39.972809 95.2467977 -41.78025994 89.33535492 -43.68414307 83.44488525 C-44.71415579 80.25379973 -45.72849347 77.05780207 -46.74279785 73.86169434 C-47.23934184 72.3129862 -47.74356364 70.76671422 -48.25622559 69.2232666 C-52.87847184 55.29696478 -55.40168073 42.01228003 -48.5 28.25 C-41.74573861 15.0718487 -31.27730182 7.31885049 -17.5 2.25 C-11.53493447 0.45373669 -6.2111531 -0.05981849 0 0 Z " fill="#FECB52" transform="translate(117.5,31.75)"/>
</svg>
