<svg width="1454" height="2604" viewBox="0 0 1454 2604" fill="none" xmlns="http://www.w3.org/2000/svg">
<rect x="268.5" y="86.5" width="905" height="2435" stroke="#0097B2" stroke-width="5"/>
<path d="M221 2602L396 2524.23" stroke="#0097B2" stroke-width="5"/>
<path d="M1221 2602L1046 2524.23" stroke="#0097B2" stroke-width="5"/>
<path d="M408 2602L526 2524.23" stroke="#0097B2" stroke-width="5"/>
<path d="M1034 2602L916 2524.23" stroke="#0097B2" stroke-width="5"/>
<path d="M572 2602L656 2524.23" stroke="#0097B2" stroke-width="5"/>
<path d="M870 2602L786 2524.23" stroke="#0097B2" stroke-width="5"/>
<path d="M1436 2601.77L1166 2524" stroke="#0097B2" stroke-width="5"/>
<path d="M6 2601.77L276 2524" stroke="#0097B2" stroke-width="5"/>
<path d="M1446 2L1176 84" stroke="#0097B2" stroke-width="5"/>
<path d="M221 2L396 84" stroke="#0097B2" stroke-width="5"/>
<path d="M1221 2L1046 84" stroke="#0097B2" stroke-width="5"/>
<path d="M408 2L526 84" stroke="#0097B2" stroke-width="5"/>
<path d="M1034 2L916 84" stroke="#0097B2" stroke-width="5"/>
<path d="M572 2L656 84" stroke="#0097B2" stroke-width="5"/>
<path d="M870 2L786 84" stroke="#0097B2" stroke-width="5"/>
<path d="M6 2L276 84" stroke="#0097B2" stroke-width="5"/>
<path d="M1446 315L1176 371.486" stroke="#0097B2" stroke-width="5"/>
<path d="M1446 462L1173 522.328" stroke="#0097B2" stroke-width="5"/>
<path d="M1446 592L1176 652.233" stroke="#0097B2" stroke-width="5"/>
<path d="M1446 882L1171 930.233" stroke="#0097B2" stroke-width="5"/>
<path d="M1441 742L1176 800.167" stroke="#0097B2" stroke-width="5"/>
<path d="M1446 1024L1171 1060.17" stroke="#0097B2" stroke-width="5"/>
<path d="M1446 1142L1171 1178.17" stroke="#0097B2" stroke-width="5"/>
<path d="M1451 1272L1176 1308.17" stroke="#0097B2" stroke-width="5"/>
<path d="M1446 158L1176 224.75" stroke="#0097B2" stroke-width="5"/>
<path d="M1451 2295.17L1181 2238.68" stroke="#0097B2" stroke-width="5"/>
<path d="M1451 2148.17L1178 2087.84" stroke="#0097B2" stroke-width="5"/>
<path d="M1451 2018.17L1181 1957.93" stroke="#0097B2" stroke-width="5"/>
<path d="M1451 1728.17L1176 1679.93" stroke="#0097B2" stroke-width="5"/>
<path d="M1446 1868.17L1181 1810" stroke="#0097B2" stroke-width="5"/>
<path d="M1451 1586.17L1176 1550" stroke="#0097B2" stroke-width="5"/>
<path d="M1453 1450.17L1178 1414" stroke="#0097B2" stroke-width="5"/>
<path d="M1451 2452.17L1181 2385.42" stroke="#0097B2" stroke-width="5"/>
<path d="M6 315L276 371.486" stroke="#0097B2" stroke-width="5"/>
<path d="M6 462L279 522.328" stroke="#0097B2" stroke-width="5"/>
<path d="M6 592L276 652.233" stroke="#0097B2" stroke-width="5"/>
<path d="M6 882L281 930.233" stroke="#0097B2" stroke-width="5"/>
<path d="M10.9983 742L276 800.167" stroke="#0097B2" stroke-width="5"/>
<path d="M6 1024L281 1060.17" stroke="#0097B2" stroke-width="5"/>
<path d="M6 1142L281 1178.17" stroke="#0097B2" stroke-width="5"/>
<path d="M1 1272L276 1308.17" stroke="#0097B2" stroke-width="5"/>
<path d="M6 158L276 224.75" stroke="#0097B2" stroke-width="5"/>
<path d="M1 2295.17L271 2238.68" stroke="#0097B2" stroke-width="5"/>
<path d="M1 2148.17L274 2087.84" stroke="#0097B2" stroke-width="5"/>
<path d="M1 2018.17L271 1957.93" stroke="#0097B2" stroke-width="5"/>
<path d="M1 1728.17L276 1679.93" stroke="#0097B2" stroke-width="5"/>
<path d="M5.99829 1868.17L271 1810" stroke="#0097B2" stroke-width="5"/>
<path d="M1 1586.17L276 1550" stroke="#0097B2" stroke-width="5"/>
<path d="M1 1450.17L276 1414" stroke="#0097B2" stroke-width="5"/>
<path d="M1 2452.17L271 2385.42" stroke="#0097B2" stroke-width="5"/>
<rect x="189.5" y="61.5" width="1053" height="2482" stroke="#0097B2" stroke-width="3"/>
<rect x="100.5" y="33.5" width="1235" height="2539" stroke="#0097B2" stroke-width="3"/>
<rect x="8.5" y="4.5" width="1435" height="2595" stroke="#0097B2" stroke-width="5"/>
</svg>
